<mxfile host="app.diagrams.net" agent="Mozilla/5.0 (X11; Linux x86_64) AppleWebKit/537.36 (KHTML, like Gecko) Chrome/131.0.0.0 Safari/537.36" version="25.0.3">
  <diagram name="Page-1" id="ADvmX23wc7LTFwuVOcmR">
    <mxGraphModel dx="1188" dy="619" grid="1" gridSize="10" guides="1" tooltips="1" connect="1" arrows="1" fold="1" page="1" pageScale="1" pageWidth="827" pageHeight="1169" math="0" shadow="0">
      <root>
        <mxCell id="0" />
        <mxCell id="1" parent="0" />
        <mxCell id="qXsICdhWXg5G4tMMJYqc-31" style="edgeStyle=orthogonalEdgeStyle;rounded=0;orthogonalLoop=1;jettySize=auto;html=1;shape=link;sketch=1;curveFitting=1;jiggle=2;fontFamily=Comic Sans MS;" edge="1" parent="1" source="qXsICdhWXg5G4tMMJYqc-19" target="qXsICdhWXg5G4tMMJYqc-27">
          <mxGeometry relative="1" as="geometry" />
        </mxCell>
        <mxCell id="qXsICdhWXg5G4tMMJYqc-19" value="" style="image;points=[];aspect=fixed;html=1;align=center;shadow=0;dashed=0;image=img/lib/allied_telesis/switch/Switch_24_port_L3_Alternative.svg;fontFamily=Comic Sans MS;" vertex="1" parent="1">
          <mxGeometry x="300" y="213.6" width="78" height="52.8" as="geometry" />
        </mxCell>
        <mxCell id="qXsICdhWXg5G4tMMJYqc-28" style="edgeStyle=orthogonalEdgeStyle;rounded=1;orthogonalLoop=1;jettySize=auto;html=1;sketch=1;curveFitting=1;jiggle=2;fontFamily=Comic Sans MS;curved=0;" edge="1" parent="1" source="qXsICdhWXg5G4tMMJYqc-20" target="qXsICdhWXg5G4tMMJYqc-24">
          <mxGeometry relative="1" as="geometry" />
        </mxCell>
        <mxCell id="qXsICdhWXg5G4tMMJYqc-29" style="edgeStyle=orthogonalEdgeStyle;rounded=0;orthogonalLoop=1;jettySize=auto;html=1;entryX=0;entryY=0.5;entryDx=0;entryDy=0;shape=link;sketch=1;curveFitting=1;jiggle=2;fontFamily=Comic Sans MS;" edge="1" parent="1" source="qXsICdhWXg5G4tMMJYqc-20" target="qXsICdhWXg5G4tMMJYqc-22">
          <mxGeometry relative="1" as="geometry" />
        </mxCell>
        <mxCell id="qXsICdhWXg5G4tMMJYqc-20" value="" style="image;points=[];aspect=fixed;html=1;align=center;shadow=0;dashed=0;image=img/lib/allied_telesis/security/Router_VPN.svg;fontFamily=Comic Sans MS;" vertex="1" parent="1">
          <mxGeometry x="45.019999999999996" y="210" width="84.55" height="60" as="geometry" />
        </mxCell>
        <mxCell id="qXsICdhWXg5G4tMMJYqc-30" style="edgeStyle=orthogonalEdgeStyle;rounded=0;orthogonalLoop=1;jettySize=auto;html=1;shape=link;sketch=1;curveFitting=1;jiggle=2;fontFamily=Comic Sans MS;" edge="1" parent="1" source="qXsICdhWXg5G4tMMJYqc-22" target="qXsICdhWXg5G4tMMJYqc-19">
          <mxGeometry relative="1" as="geometry" />
        </mxCell>
        <mxCell id="qXsICdhWXg5G4tMMJYqc-22" value="" style="image;aspect=fixed;perimeter=ellipsePerimeter;html=1;align=center;shadow=0;dashed=0;spacingTop=3;image=img/lib/active_directory/firewall.svg;fontFamily=Comic Sans MS;" vertex="1" parent="1">
          <mxGeometry x="190" y="207.4" width="39.77" height="65.2" as="geometry" />
        </mxCell>
        <mxCell id="qXsICdhWXg5G4tMMJYqc-23" value="" style="image;points=[];aspect=fixed;html=1;align=center;shadow=0;dashed=0;image=img/lib/allied_telesis/wireless/Access_Point_Indoor.svg;fontFamily=Comic Sans MS;" vertex="1" parent="1">
          <mxGeometry x="600" y="212.7" width="36.6" height="54.6" as="geometry" />
        </mxCell>
        <mxCell id="qXsICdhWXg5G4tMMJYqc-24" value="" style="image;aspect=fixed;perimeter=ellipsePerimeter;html=1;align=center;shadow=0;dashed=0;spacingTop=3;image=img/lib/active_directory/internet_cloud.svg;fontFamily=Comic Sans MS;" vertex="1" parent="1">
          <mxGeometry y="41" width="174.6" height="110" as="geometry" />
        </mxCell>
        <mxCell id="qXsICdhWXg5G4tMMJYqc-27" value="" style="image;points=[];aspect=fixed;html=1;align=center;shadow=0;dashed=0;image=img/lib/allied_telesis/switch/Switch_24_port_L3_Alternative.svg;fontFamily=Comic Sans MS;" vertex="1" parent="1">
          <mxGeometry x="450" y="213.60000000000002" width="78" height="52.8" as="geometry" />
        </mxCell>
        <mxCell id="qXsICdhWXg5G4tMMJYqc-32" style="edgeStyle=orthogonalEdgeStyle;rounded=0;orthogonalLoop=1;jettySize=auto;html=1;entryX=-0.055;entryY=0.5;entryDx=0;entryDy=0;entryPerimeter=0;shape=link;sketch=1;curveFitting=1;jiggle=2;fontFamily=Comic Sans MS;" edge="1" parent="1" source="qXsICdhWXg5G4tMMJYqc-27" target="qXsICdhWXg5G4tMMJYqc-23">
          <mxGeometry relative="1" as="geometry" />
        </mxCell>
        <mxCell id="qXsICdhWXg5G4tMMJYqc-33" value="Transparent&lt;div&gt;FIrewall&lt;/div&gt;" style="text;html=1;align=center;verticalAlign=middle;resizable=0;points=[];autosize=1;strokeColor=none;fillColor=none;fontFamily=Comic Sans MS;" vertex="1" parent="1">
          <mxGeometry x="160" y="173.6" width="90" height="40" as="geometry" />
        </mxCell>
        <mxCell id="qXsICdhWXg5G4tMMJYqc-34" value="Router" style="text;html=1;align=center;verticalAlign=middle;resizable=0;points=[];autosize=1;strokeColor=none;fillColor=none;fontFamily=Comic Sans MS;" vertex="1" parent="1">
          <mxGeometry x="15" y="185" width="60" height="30" as="geometry" />
        </mxCell>
        <mxCell id="qXsICdhWXg5G4tMMJYqc-35" value="Access&lt;div&gt;Switch&lt;/div&gt;" style="text;html=1;align=center;verticalAlign=middle;resizable=0;points=[];autosize=1;strokeColor=none;fillColor=none;fontFamily=Comic Sans MS;" vertex="1" parent="1">
          <mxGeometry x="285" y="180" width="60" height="40" as="geometry" />
        </mxCell>
        <mxCell id="qXsICdhWXg5G4tMMJYqc-36" value="Access&lt;div&gt;Point&lt;/div&gt;" style="text;html=1;align=center;verticalAlign=middle;resizable=0;points=[];autosize=1;strokeColor=none;fillColor=none;fontFamily=Comic Sans MS;" vertex="1" parent="1">
          <mxGeometry x="588.3" y="180" width="60" height="40" as="geometry" />
        </mxCell>
        <mxCell id="qXsICdhWXg5G4tMMJYqc-37" value="Trunk&lt;br&gt;&lt;div&gt;Switch&lt;/div&gt;" style="text;html=1;align=center;verticalAlign=middle;resizable=0;points=[];autosize=1;strokeColor=none;fillColor=none;fontFamily=Comic Sans MS;" vertex="1" parent="1">
          <mxGeometry x="420" y="180" width="60" height="40" as="geometry" />
        </mxCell>
        <mxCell id="qXsICdhWXg5G4tMMJYqc-40" value="Vlan 1000 Mgmt" style="swimlane;startSize=23;fillColor=#b0e3e6;strokeColor=#0e8088;sketch=1;curveFitting=1;jiggle=2;fontFamily=Comic Sans MS;rounded=0;glass=1;" vertex="1" parent="1">
          <mxGeometry x="20" y="300" width="200" height="80" as="geometry" />
        </mxCell>
        <mxCell id="qXsICdhWXg5G4tMMJYqc-41" value="Vlan 1010 Trusted" style="swimlane;fillColor=#d0cee2;strokeColor=#56517e;sketch=1;curveFitting=1;jiggle=2;fontFamily=Comic Sans MS;rounded=0;glass=1;" vertex="1" parent="1">
          <mxGeometry x="20" y="400" width="200" height="80" as="geometry" />
        </mxCell>
        <mxCell id="qXsICdhWXg5G4tMMJYqc-97" value="10.10.0.0/16" style="text;html=1;align=center;verticalAlign=middle;resizable=0;points=[];autosize=1;strokeColor=none;fillColor=none;fontFamily=Comic Sans MS;" vertex="1" parent="qXsICdhWXg5G4tMMJYqc-41">
          <mxGeometry x="45" y="38" width="90" height="30" as="geometry" />
        </mxCell>
        <mxCell id="qXsICdhWXg5G4tMMJYqc-42" value="Vlan 2000 Guest" style="swimlane;startSize=23;fillColor=#fad9d5;strokeColor=#ae4132;sketch=1;curveFitting=1;jiggle=2;fontFamily=Comic Sans MS;rounded=0;glass=1;" vertex="1" parent="1">
          <mxGeometry x="600" y="300" width="108.29999999999995" height="80" as="geometry" />
        </mxCell>
        <mxCell id="qXsICdhWXg5G4tMMJYqc-100" value="192.168.200.0/24" style="text;html=1;align=center;verticalAlign=middle;resizable=0;points=[];autosize=1;strokeColor=none;fillColor=none;fontFamily=Comic Sans MS;" vertex="1" parent="qXsICdhWXg5G4tMMJYqc-42">
          <mxGeometry x="-5.850000000000046" y="38" width="120" height="30" as="geometry" />
        </mxCell>
        <mxCell id="qXsICdhWXg5G4tMMJYqc-43" value="Vlan 2010 Untrusted" style="swimlane;fillColor=#fad7ac;strokeColor=#b46504;sketch=1;curveFitting=1;jiggle=2;fontFamily=Comic Sans MS;rounded=0;glass=1;" vertex="1" parent="1">
          <mxGeometry x="340" y="300" width="200" height="80" as="geometry" />
        </mxCell>
        <mxCell id="qXsICdhWXg5G4tMMJYqc-63" style="edgeStyle=orthogonalEdgeStyle;rounded=1;orthogonalLoop=1;jettySize=auto;html=1;exitX=0.75;exitY=0;exitDx=0;exitDy=0;entryX=1;entryY=0.5;entryDx=0;entryDy=0;shape=link;sketch=1;curveFitting=1;jiggle=2;fontFamily=Comic Sans MS;" edge="1" parent="1" source="qXsICdhWXg5G4tMMJYqc-45" target="qXsICdhWXg5G4tMMJYqc-40">
          <mxGeometry relative="1" as="geometry" />
        </mxCell>
        <mxCell id="qXsICdhWXg5G4tMMJYqc-64" style="edgeStyle=orthogonalEdgeStyle;rounded=1;orthogonalLoop=1;jettySize=auto;html=1;exitX=0.75;exitY=0;exitDx=0;exitDy=0;entryX=1;entryY=0.5;entryDx=0;entryDy=0;shape=link;sketch=1;curveFitting=1;jiggle=2;fontFamily=Comic Sans MS;" edge="1" parent="1" source="qXsICdhWXg5G4tMMJYqc-45" target="qXsICdhWXg5G4tMMJYqc-41">
          <mxGeometry relative="1" as="geometry" />
        </mxCell>
        <mxCell id="qXsICdhWXg5G4tMMJYqc-65" style="edgeStyle=orthogonalEdgeStyle;rounded=1;orthogonalLoop=1;jettySize=auto;html=1;exitX=0.75;exitY=0;exitDx=0;exitDy=0;entryX=0;entryY=0.5;entryDx=0;entryDy=0;shape=link;sketch=1;curveFitting=1;jiggle=2;fontFamily=Comic Sans MS;" edge="1" parent="1" source="qXsICdhWXg5G4tMMJYqc-45" target="qXsICdhWXg5G4tMMJYqc-43">
          <mxGeometry relative="1" as="geometry" />
        </mxCell>
        <mxCell id="qXsICdhWXg5G4tMMJYqc-66" style="edgeStyle=orthogonalEdgeStyle;rounded=1;orthogonalLoop=1;jettySize=auto;html=1;exitX=0.75;exitY=0;exitDx=0;exitDy=0;entryX=0.5;entryY=1;entryDx=0;entryDy=0;shape=link;sketch=1;curveFitting=1;jiggle=2;fontFamily=Comic Sans MS;" edge="1" parent="1" source="qXsICdhWXg5G4tMMJYqc-45" target="qXsICdhWXg5G4tMMJYqc-42">
          <mxGeometry relative="1" as="geometry">
            <Array as="points">
              <mxPoint x="275" y="400" />
              <mxPoint x="654" y="400" />
            </Array>
          </mxGeometry>
        </mxCell>
        <mxCell id="qXsICdhWXg5G4tMMJYqc-45" value="Datacentre" style="swimlane;horizontal=0;whiteSpace=wrap;html=1;movable=1;resizable=1;rotatable=1;deletable=1;editable=1;locked=0;connectable=1;fillColor=#b1ddf0;strokeColor=#10739e;fontFamily=Comic Sans MS;rounded=0;sketch=1;curveFitting=1;jiggle=2;glass=1;" vertex="1" parent="1">
          <mxGeometry x="20" y="542.5" width="340" height="230" as="geometry">
            <mxRectangle x="30" y="620" width="40" height="90" as="alternateBounds" />
          </mxGeometry>
        </mxCell>
        <mxCell id="qXsICdhWXg5G4tMMJYqc-44" value="" style="html=1;labelPosition=right;align=left;spacingLeft=15;shadow=0;dashed=0;outlineConnect=0;shape=mxgraph.rack.dell.dell_poweredge_1u;fillColor=none;strokeColor=none;fillStyle=solid;gradientColor=none;movable=1;resizable=1;rotatable=1;deletable=1;editable=1;locked=0;connectable=1;fontFamily=Comic Sans MS;" vertex="1" parent="qXsICdhWXg5G4tMMJYqc-45">
          <mxGeometry x="38" y="30" width="162" height="15" as="geometry" />
        </mxCell>
        <mxCell id="qXsICdhWXg5G4tMMJYqc-46" value="" style="html=1;labelPosition=right;align=left;spacingLeft=15;shadow=0;dashed=0;outlineConnect=0;shape=mxgraph.rack.dell.dell_poweredge_1u;fillColor=none;strokeColor=none;fillStyle=solid;gradientColor=none;movable=1;resizable=1;rotatable=1;deletable=1;editable=1;locked=0;connectable=1;fontFamily=Comic Sans MS;" vertex="1" parent="qXsICdhWXg5G4tMMJYqc-45">
          <mxGeometry x="38" y="70" width="162" height="15" as="geometry" />
        </mxCell>
        <mxCell id="qXsICdhWXg5G4tMMJYqc-47" value="" style="strokeColor=none;html=1;labelPosition=right;align=left;spacingLeft=15;shadow=0;dashed=0;outlineConnect=0;shape=mxgraph.rack.dell.dell_poweredge_2u;gradientColor=none;fillColor=none;movable=1;resizable=1;rotatable=1;deletable=1;editable=1;locked=0;connectable=1;fontFamily=Comic Sans MS;" vertex="1" parent="qXsICdhWXg5G4tMMJYqc-45">
          <mxGeometry x="38" y="110" width="162" height="30" as="geometry" />
        </mxCell>
        <mxCell id="qXsICdhWXg5G4tMMJYqc-53" value="" style="sketch=0;pointerEvents=1;shadow=0;dashed=0;html=1;strokeColor=none;fillColor=#505050;labelPosition=center;verticalLabelPosition=bottom;verticalAlign=top;outlineConnect=0;align=center;shape=mxgraph.office.servers.server_generic;movable=1;resizable=1;rotatable=1;deletable=1;editable=1;locked=0;connectable=1;fontFamily=Comic Sans MS;" vertex="1" parent="qXsICdhWXg5G4tMMJYqc-45">
          <mxGeometry x="38" y="161.5" width="20" height="39" as="geometry" />
        </mxCell>
        <mxCell id="qXsICdhWXg5G4tMMJYqc-54" value="" style="sketch=0;pointerEvents=1;shadow=0;dashed=0;html=1;strokeColor=none;fillColor=#505050;labelPosition=center;verticalLabelPosition=bottom;verticalAlign=top;outlineConnect=0;align=center;shape=mxgraph.office.servers.file_server;movable=1;resizable=1;rotatable=1;deletable=1;editable=1;locked=0;connectable=1;fontFamily=Comic Sans MS;" vertex="1" parent="qXsICdhWXg5G4tMMJYqc-45">
          <mxGeometry x="179.5" y="161.5" width="31" height="40" as="geometry" />
        </mxCell>
        <mxCell id="qXsICdhWXg5G4tMMJYqc-57" value="Dell R310 Incus" style="text;html=1;align=center;verticalAlign=middle;resizable=1;points=[];autosize=1;strokeColor=none;fillColor=none;movable=1;rotatable=1;deletable=1;editable=1;locked=0;connectable=1;fontFamily=Comic Sans MS;" vertex="1" parent="qXsICdhWXg5G4tMMJYqc-45">
          <mxGeometry x="210.5" y="22.5" width="110" height="30" as="geometry" />
        </mxCell>
        <mxCell id="qXsICdhWXg5G4tMMJYqc-58" value="Dell R610 Cockpit" style="text;html=1;align=center;verticalAlign=middle;resizable=1;points=[];autosize=1;strokeColor=none;fillColor=none;movable=1;rotatable=1;deletable=1;editable=1;locked=0;connectable=1;fontFamily=Comic Sans MS;" vertex="1" parent="qXsICdhWXg5G4tMMJYqc-45">
          <mxGeometry x="210.5" y="65" width="120" height="30" as="geometry" />
        </mxCell>
        <mxCell id="qXsICdhWXg5G4tMMJYqc-59" value="Dell R710 Cockpit" style="text;html=1;align=center;verticalAlign=middle;resizable=1;points=[];autosize=1;strokeColor=none;fillColor=none;movable=1;rotatable=1;deletable=1;editable=1;locked=0;connectable=1;fontFamily=Comic Sans MS;" vertex="1" parent="qXsICdhWXg5G4tMMJYqc-45">
          <mxGeometry x="210.5" y="110" width="120" height="30" as="geometry" />
        </mxCell>
        <mxCell id="qXsICdhWXg5G4tMMJYqc-61" value="Dell 3040&lt;div&gt;Technitium&lt;/div&gt;" style="text;html=1;align=center;verticalAlign=middle;resizable=1;points=[];autosize=1;strokeColor=none;fillColor=none;movable=1;rotatable=1;deletable=1;editable=1;locked=0;connectable=1;fontFamily=Comic Sans MS;" vertex="1" parent="qXsICdhWXg5G4tMMJYqc-45">
          <mxGeometry x="65" y="161.5" width="90" height="40" as="geometry" />
        </mxCell>
        <mxCell id="qXsICdhWXg5G4tMMJYqc-62" value="Microcentre&lt;div&gt;Cockpit&lt;/div&gt;" style="text;html=1;align=center;verticalAlign=middle;resizable=1;points=[];autosize=1;strokeColor=none;fillColor=none;movable=1;rotatable=1;deletable=1;editable=1;locked=0;connectable=1;fontFamily=Comic Sans MS;" vertex="1" parent="qXsICdhWXg5G4tMMJYqc-45">
          <mxGeometry x="225.5" y="160.5" width="90" height="40" as="geometry" />
        </mxCell>
        <mxCell id="qXsICdhWXg5G4tMMJYqc-70" style="edgeStyle=orthogonalEdgeStyle;rounded=1;orthogonalLoop=1;jettySize=auto;html=1;sketch=1;curveFitting=1;jiggle=2;fontFamily=Comic Sans MS;curved=0;" edge="1" parent="1" source="qXsICdhWXg5G4tMMJYqc-67" target="qXsICdhWXg5G4tMMJYqc-44">
          <mxGeometry relative="1" as="geometry">
            <Array as="points">
              <mxPoint x="320" y="520" />
              <mxPoint x="139" y="520" />
            </Array>
          </mxGeometry>
        </mxCell>
        <mxCell id="qXsICdhWXg5G4tMMJYqc-67" value="" style="verticalLabelPosition=bottom;sketch=0;aspect=fixed;html=1;verticalAlign=top;strokeColor=none;align=center;outlineConnect=0;shape=mxgraph.citrix.printer;fontFamily=Comic Sans MS;" vertex="1" parent="1">
          <mxGeometry x="290" y="420" width="65" height="65" as="geometry" />
        </mxCell>
        <mxCell id="qXsICdhWXg5G4tMMJYqc-74" style="edgeStyle=orthogonalEdgeStyle;rounded=1;orthogonalLoop=1;jettySize=auto;html=1;entryX=0.5;entryY=1;entryDx=0;entryDy=0;sketch=1;curveFitting=1;jiggle=2;fontFamily=Comic Sans MS;curved=0;" edge="1" parent="1" source="qXsICdhWXg5G4tMMJYqc-72" target="qXsICdhWXg5G4tMMJYqc-41">
          <mxGeometry relative="1" as="geometry">
            <Array as="points">
              <mxPoint x="120" y="500" />
            </Array>
          </mxGeometry>
        </mxCell>
        <mxCell id="qXsICdhWXg5G4tMMJYqc-72" value="LAN" style="swimlane;fillColor=#d0cee2;strokeColor=#56517e;sketch=1;curveFitting=1;jiggle=2;fontFamily=Comic Sans MS;rounded=0;glass=1;" vertex="1" parent="1">
          <mxGeometry x="370" y="420" width="200" height="170" as="geometry" />
        </mxCell>
        <mxCell id="qXsICdhWXg5G4tMMJYqc-73" value="" style="sketch=0;pointerEvents=1;shadow=0;dashed=0;html=1;strokeColor=none;fillColor=#505050;labelPosition=center;verticalLabelPosition=bottom;verticalAlign=top;outlineConnect=0;align=center;shape=mxgraph.office.devices.tv;fontFamily=Comic Sans MS;" vertex="1" parent="qXsICdhWXg5G4tMMJYqc-72">
          <mxGeometry x="20" y="35" width="59" height="45" as="geometry" />
        </mxCell>
        <mxCell id="qXsICdhWXg5G4tMMJYqc-76" value="" style="verticalLabelPosition=bottom;sketch=0;aspect=fixed;html=1;verticalAlign=top;strokeColor=none;align=center;outlineConnect=0;shape=mxgraph.citrix.ip_phone;fontFamily=Comic Sans MS;" vertex="1" parent="qXsICdhWXg5G4tMMJYqc-72">
          <mxGeometry x="20" y="110" width="76.5" height="37" as="geometry" />
        </mxCell>
        <mxCell id="qXsICdhWXg5G4tMMJYqc-78" value="" style="fontColor=#0066CC;verticalAlign=top;verticalLabelPosition=bottom;labelPosition=center;align=center;html=1;outlineConnect=0;fillColor=#CCCCCC;strokeColor=#6881B3;gradientColor=none;gradientDirection=north;strokeWidth=2;shape=mxgraph.networks.pc;fontFamily=Comic Sans MS;" vertex="1" parent="qXsICdhWXg5G4tMMJYqc-72">
          <mxGeometry x="110" y="35" width="82" height="55" as="geometry" />
        </mxCell>
        <mxCell id="qXsICdhWXg5G4tMMJYqc-81" value="" style="sketch=0;aspect=fixed;pointerEvents=1;shadow=0;dashed=0;html=1;strokeColor=none;labelPosition=center;verticalLabelPosition=bottom;verticalAlign=top;align=center;fillColor=#00188D;shape=mxgraph.mscae.enterprise.android_phone;fontFamily=Comic Sans MS;" vertex="1" parent="qXsICdhWXg5G4tMMJYqc-72">
          <mxGeometry x="146" y="110" width="30" height="50" as="geometry" />
        </mxCell>
        <mxCell id="qXsICdhWXg5G4tMMJYqc-89" style="edgeStyle=orthogonalEdgeStyle;rounded=1;orthogonalLoop=1;jettySize=auto;html=1;entryX=1;entryY=0.75;entryDx=0;entryDy=0;sketch=1;curveFitting=1;jiggle=2;fontFamily=Comic Sans MS;exitX=0.25;exitY=0;exitDx=0;exitDy=0;shadow=0;curved=0;" edge="1" parent="1" source="qXsICdhWXg5G4tMMJYqc-87" target="qXsICdhWXg5G4tMMJYqc-43">
          <mxGeometry relative="1" as="geometry">
            <Array as="points">
              <mxPoint x="633" y="450" />
              <mxPoint x="590" y="450" />
              <mxPoint x="590" y="360" />
            </Array>
          </mxGeometry>
        </mxCell>
        <mxCell id="qXsICdhWXg5G4tMMJYqc-87" value="Untrusted" style="swimlane;fillColor=#fad7ac;strokeColor=#b46504;sketch=1;curveFitting=1;jiggle=2;fontFamily=Comic Sans MS;rounded=0;glass=1;" vertex="1" parent="1">
          <mxGeometry x="588.3" y="480" width="180" height="97.5" as="geometry" />
        </mxCell>
        <mxCell id="qXsICdhWXg5G4tMMJYqc-90" value="" style="html=1;verticalLabelPosition=bottom;align=center;labelBackgroundColor=#ffffff;verticalAlign=top;strokeWidth=2;strokeColor=#0080F0;shadow=0;dashed=0;shape=mxgraph.ios7.icons.flag;fontFamily=Comic Sans MS;" vertex="1" parent="qXsICdhWXg5G4tMMJYqc-87">
          <mxGeometry x="10" y="45.17" width="30" height="30" as="geometry" />
        </mxCell>
        <mxCell id="qXsICdhWXg5G4tMMJYqc-91" value="" style="sketch=0;verticalLabelPosition=bottom;sketch=0;aspect=fixed;html=1;verticalAlign=top;strokeColor=none;fillColor=#000000;align=center;outlineConnect=0;pointerEvents=1;shape=mxgraph.citrix2.windows_app;fontFamily=Comic Sans MS;" vertex="1" parent="qXsICdhWXg5G4tMMJYqc-87">
          <mxGeometry x="50" y="35.5" width="50" height="49.345" as="geometry" />
        </mxCell>
        <mxCell id="qXsICdhWXg5G4tMMJYqc-94" value="" style="sketch=0;pointerEvents=1;shadow=0;dashed=0;html=1;strokeColor=none;fillColor=#505050;labelPosition=center;verticalLabelPosition=bottom;verticalAlign=top;outlineConnect=0;align=center;shape=mxgraph.office.sites.website_public;fontFamily=Comic Sans MS;" vertex="1" parent="qXsICdhWXg5G4tMMJYqc-87">
          <mxGeometry x="110" y="36.84" width="58" height="48" as="geometry" />
        </mxCell>
        <mxCell id="qXsICdhWXg5G4tMMJYqc-96" value="10.0.0.0/24" style="text;html=1;align=center;verticalAlign=middle;resizable=0;points=[];autosize=1;strokeColor=none;fillColor=none;fontFamily=Comic Sans MS;" vertex="1" parent="1">
          <mxGeometry x="65" y="338" width="90" height="30" as="geometry" />
        </mxCell>
        <mxCell id="qXsICdhWXg5G4tMMJYqc-99" value="172.20.0.0/16" style="text;html=1;align=center;verticalAlign=middle;resizable=0;points=[];autosize=1;strokeColor=none;fillColor=none;fontFamily=Comic Sans MS;" vertex="1" parent="1">
          <mxGeometry x="390" y="338" width="100" height="30" as="geometry" />
        </mxCell>
      </root>
    </mxGraphModel>
  </diagram>
</mxfile>
